<?xml version="1.0" encoding="UTF-8" standalone="no" ?>
<svg
  class="img-fluid"
  id="outputsvg"
  style="transform: matrix(1.69, 0, 0, 1.69, -5.07, 1.69); transform-origin: 50% 50%; cursor: move; transition: transform 200ms ease-in-out 0s;"
  width="1000"
  height="700"
  viewBox="-2500 -1000 14000 7000"
  version="1.1"
  sodipodi:docname="signature.svg"
  inkscape:version="1.3 (0e150ed6c4, 2023-07-21)"
  xmlns:inkscape="http://www.inkscape.org/namespaces/inkscape"
  xmlns:sodipodi="http://sodipodi.sourceforge.net/DTD/sodipodi-0.dtd"
  xmlns="http://www.w3.org/2000/svg"
  xmlns:svg="http://www.w3.org/2000/svg"
>
  <defs id="defs2" />
  <sodipodi:namedview
    id="namedview2"
    pagecolor="#000000"
    bordercolor="#000000"
    borderopacity="0.25"
    inkscape:showpageshadow="2"
    inkscape:pageopacity="0.0"
    inkscape:pagecheckerboard="0"
    inkscape:deskcolor="#d1d1d1"
    inkscape:zoom="2.0846939"
    inkscape:cx="451.62506"
    inkscape:cy="219.45668"
    inkscape:window-width="2560"
    inkscape:window-height="1369"
    inkscape:window-x="1912"
    inkscape:window-y="-8"
    inkscape:window-maximized="1"
    inkscape:current-layer="outputsvg"
  />
  <g
    id="liGvKHRMmzmT3XdQ9SD30o"
    fill="#ffffff"
    data-darkreader-inline-fill=""
    transform="translate(-182.28101,-81.546749)"
  >
    <g id="g2" transform="translate(19.187468,-38.374938)">
      <path
        id="ppLul9gL0"
        d="m 5370,4840 c -8,-11 -22,-20 -32,-20 -15,0 -18,-9 -18,-60 0,-33 4,-60 10,-60 6,0 10,-9 10,-20 0,-11 5,-20 10,-20 6,0 10,-8 10,-18 0,-10 9,-24 20,-32 11,-8 20,-22 20,-32 0,-10 5,-18 10,-18 6,0 10,-9 10,-20 0,-11 5,-20 10,-20 6,0 10,-9 10,-20 0,-11 5,-20 10,-20 6,0 10,-9 10,-20 0,-11 5,-20 10,-20 6,0 10,-8 10,-18 0,-10 9,-24 20,-32 11,-8 20,-21 20,-30 0,-9 9,-22 20,-30 11,-8 20,-22 20,-32 0,-10 5,-18 10,-18 6,0 10,-18 10,-40 0,-38 -2,-40 -30,-40 -27,0 -30,-3 -30,-30 0,-16 -4,-30 -10,-30 -5,0 -10,-9 -10,-20 0,-11 5,-20 10,-20 6,0 10,-7 10,-16 0,-9 14,-29 30,-44 17,-15 30,-35 30,-44 0,-9 5,-16 10,-16 6,0 10,-13 10,-28 0,-16 8,-34 20,-42 11,-8 20,-22 20,-32 0,-10 5,-18 10,-18 6,0 10,-9 10,-20 0,-11 5,-20 10,-20 6,0 10,-9 10,-20 0,-11 5,-20 10,-20 6,0 10,-13 10,-30 0,-16 5,-30 10,-30 6,0 10,-8 10,-18 0,-10 9,-24 20,-32 11,-8 20,-22 20,-32 0,-10 5,-18 10,-18 6,0 10,-9 10,-20 0,-11 5,-20 10,-20 6,0 10,-9 10,-20 0,-11 5,-20 10,-20 6,0 10,-13 10,-30 0,-16 5,-30 10,-30 6,0 10,-8 10,-18 0,-10 9,-24 20,-32 11,-8 20,-22 20,-32 0,-10 5,-18 10,-18 6,0 10,-9 10,-20 0,-11 5,-20 10,-20 6,0 10,-9 10,-20 0,-11 5,-20 10,-20 6,0 10,-9 10,-20 0,-11 5,-20 10,-20 6,0 10,-18 10,-40 0,-38 -2,-40 -30,-40 -16,0 -30,5 -30,10 0,6 -9,10 -20,10 -11,0 -20,5 -20,10 0,6 -9,10 -20,10 -11,0 -20,5 -20,10 0,6 -7,10 -15,10 -19,0 -125,104 -125,123 0,7 -9,19 -20,27 -11,8 -20,21 -20,30 0,9 -9,22 -20,30 -11,8 -20,22 -20,32 0,10 -4,18 -10,18 -5,0 -10,8 -10,18 0,10 -9,24 -20,32 -11,8 -20,22 -20,32 0,10 -4,18 -10,18 -5,0 -10,9 -10,20 0,11 -4,20 -10,20 -5,0 -10,9 -10,20 0,11 -4,20 -10,20 -5,0 -10,9 -10,20 0,11 -4,20 -10,20 -5,0 -10,8 -10,18 0,10 -9,24 -20,32 -12,8 -20,26 -20,42 0,15 -4,28 -10,28 -5,0 -10,9 -10,20 0,11 -4,20 -10,20 -5,0 -10,18 -10,40 0,22 -4,40 -10,40 -5,0 -10,18 -10,40 0,22 -4,40 -10,40 -5,0 -10,18 -10,40 0,22 -4,40 -10,40 -5,0 -10,14 -10,30 0,17 -4,30 -10,30 -5,0 -10,14 -10,30 0,17 -4,30 -10,30 -5,0 -10,14 -10,30 0,17 -4,30 -10,30 -5,0 -10,9 -10,20 0,17 -7,20 -50,20 -27,0 -50,-4 -50,-10 0,-5 -13,-10 -30,-10 h -30 v -60 c 0,-33 4,-60 10,-60 6,0 10,-13 10,-28 0,-16 8,-34 20,-42 14,-10 20,-26 20,-52 0,-21 5,-38 10,-38 6,0 10,-22 10,-50 0,-27 5,-50 10,-50 6,0 10,-22 10,-50 0,-27 5,-50 10,-50 6,0 10,-22 10,-50 0,-27 5,-50 10,-50 6,0 10,-40 10,-99 0,-70 4,-101 13,-104 9,-4 8,-8 -3,-16 -13,-10 -13,-12 0,-21 13,-9 13,-11 0,-20 -13,-9 -13,-11 0,-20 13,-9 13,-11 0,-20 -13,-9 -13,-11 0,-21 11,-8 12,-12 3,-16 -7,-2 -13,-18 -13,-34 0,-16 -2,-29 -5,-29 -2,0 -20,15 -40,32 -24,23 -35,42 -35,60 0,16 -4,28 -10,28 -5,0 -10,14 -10,30 0,17 -4,30 -10,30 -5,0 -10,14 -10,30 0,17 -4,30 -10,30 -5,0 -10,18 -10,40 0,22 -4,40 -10,40 -5,0 -10,14 -10,30 0,17 -4,30 -10,30 -6,0 -10,27 -10,60 0,33 -4,60 -10,60 -6,0 -10,33 -10,80 0,47 -4,80 -10,80 -6,0 -10,27 -10,60 0,33 -4,60 -10,60 -5,0 -10,11 -10,25 0,29 -79,115 -105,115 -8,0 -15,5 -15,10 0,6 -9,10 -20,10 -11,0 -20,-4 -20,-10 0,-5 -9,-10 -20,-10 -11,0 -20,-4 -20,-10 0,-5 -7,-10 -16,-10 -8,0 -22,-6 -30,-14 -8,-8 -14,-22 -14,-30 0,-9 -4,-16 -10,-16 -5,0 -10,-9 -10,-20 0,-11 -4,-20 -10,-20 -5,0 -10,-13 -10,-30 0,-16 -4,-30 -10,-30 -5,0 -10,-12 -10,-26 0,-14 -7,-32 -15,-40 -13,-13 -18,-12 -40,10 -14,14 -25,30 -25,37 0,6 -13,24 -30,39 -16,15 -30,33 -30,39 0,17 -47,61 -65,61 -8,0 -15,5 -15,10 0,6 -27,10 -60,10 -33,0 -60,-4 -60,-10 0,-5 -9,-10 -20,-10 -11,0 -20,-4 -20,-10 0,-5 -8,-10 -18,-10 -10,0 -24,-9 -32,-20 -8,-11 -20,-20 -28,-20 -18,0 -42,25 -42,44 0,9 -4,16 -10,16 -5,0 -10,8 -10,18 0,10 -9,24 -20,32 -11,8 -20,20 -20,28 0,7 -11,24 -25,37 -21,22 -33,25 -90,25 -37,0 -65,-4 -65,-10 0,-5 -7,-10 -16,-10 -20,0 -44,-24 -44,-44 0,-9 -4,-16 -10,-16 -5,0 -10,-22 -10,-50 0,-27 -4,-50 -10,-50 -5,0 -10,-18 -10,-40 0,-22 -4,-40 -10,-40 -5,0 -10,9 -10,20 0,11 -4,20 -10,20 -5,0 -10,9 -10,20 0,11 -4,20 -10,20 -5,0 -10,7 -10,16 0,9 -13,29 -30,44 -16,15 -30,33 -30,39 0,17 -47,61 -65,61 -8,0 -15,5 -15,10 0,6 -22,10 -50,10 -27,0 -50,-4 -50,-10 0,-5 -7,-10 -15,-10 -26,0 -105,-86 -105,-115 0,-14 -4,-25 -10,-25 -5,0 -10,-13 -10,-30 0,-16 -4,-30 -10,-30 -5,0 -10,-13 -10,-30 0,-16 -4,-30 -10,-30 -5,0 -10,-13 -10,-30 0,-16 -4,-30 -10,-30 -5,0 -10,-9 -10,-20 0,-11 -4,-20 -10,-20 -5,0 -10,-13 -10,-30 0,-16 -4,-30 -10,-30 -5,0 -10,-13 -10,-30 0,-16 -4,-30 -10,-30 -5,0 -10,-22 -10,-50 0,-39 -4,-50 -16,-50 -23,0 -44,25 -44,54 0,14 -4,26 -10,26 -6,0 -10,47 -10,120 0,73 -4,120 -10,120 -5,0 -10,23 -10,50 0,28 -4,50 -10,50 -5,0 -10,18 -10,40 0,22 -4,40 -10,40 -5,0 -10,14 -10,30 0,17 -4,30 -10,30 -5,0 -10,14 -10,30 0,17 -4,30 -10,30 -5,0 -10,9 -10,20 0,11 -4,20 -10,20 -5,0 -10,11 -10,25 0,34 -61,95 -95,95 -14,0 -25,-4 -25,-10 0,-5 -9,-10 -20,-10 -11,0 -20,-4 -20,-10 0,-5 -7,-10 -15,-10 -20,0 -85,-65 -85,-85 0,-8 -4,-15 -10,-15 -5,0 -10,-9 -10,-20 0,-11 -4,-20 -10,-20 -5,0 -10,-9 -10,-20 0,-11 -4,-20 -10,-20 -5,0 -10,-9 -10,-20 0,-11 -4,-20 -10,-20 -5,0 -10,-9 -10,-20 0,-11 -4,-20 -10,-20 -5,0 -10,-9 -10,-20 0,-11 -4,-20 -10,-20 -5,0 -10,-18 -10,-40 0,-22 -4,-40 -10,-40 -5,0 -10,-13 -10,-30 0,-16 -4,-30 -10,-30 -5,0 -10,-22 -10,-50 0,-27 -4,-50 -10,-50 -5,0 -10,-18 -10,-40 0,-22 -4,-40 -10,-40 -5,0 -10,-9 -10,-20 0,-11 -4,-20 -10,-20 -5,0 -10,-18 -10,-40 0,-22 -4,-40 -10,-40 -5,0 -10,-22 -10,-50 v -50 h -35 c -25,0 -44,-8 -60,-25 -24,-23 -25,-30 -25,-144 v -119 l 35,-36 c 27,-28 43,-36 70,-36 19,0 35,5 35,10 0,6 7,10 16,10 19,0 44,24 44,42 0,8 9,20 20,28 11,8 20,22 20,32 0,10 5,18 10,18 6,0 10,27 10,60 0,33 4,60 10,60 6,0 10,23 10,50 0,28 5,50 10,50 6,0 10,23 10,50 0,28 5,50 10,50 6,0 10,18 10,40 0,22 5,40 10,40 6,0 10,14 10,30 0,17 5,30 10,30 6,0 10,18 10,40 0,22 5,40 10,40 6,0 10,18 10,40 0,22 5,40 10,40 6,0 10,14 10,30 0,17 5,30 10,30 6,0 10,18 10,40 0,22 5,40 10,40 6,0 10,9 10,20 0,11 5,20 10,20 6,0 10,8 10,18 0,10 9,24 20,32 11,8 20,22 20,32 0,10 5,18 10,18 6,0 10,7 10,16 0,22 25,44 50,44 29,0 50,-23 50,-54 0,-14 5,-26 10,-26 6,0 10,-13 10,-30 0,-16 5,-30 10,-30 6,0 10,-18 10,-40 0,-22 5,-40 10,-40 6,0 10,-27 10,-60 0,-33 4,-60 10,-60 6,0 10,-50 10,-130 0,-80 4,-130 10,-130 6,0 10,-72 10,-196 v -197 l 28,-23 c 33,-29 43,-30 62,-4 8,11 20,20 28,20 22,0 62,48 62,75 0,14 5,25 10,25 6,0 10,14 10,30 0,17 5,30 10,30 6,0 10,14 10,30 0,17 5,30 10,30 6,0 10,14 10,30 0,17 5,30 10,30 6,0 10,23 10,50 0,28 5,50 10,50 6,0 10,18 10,40 0,22 5,40 10,40 6,0 10,14 10,30 0,17 5,30 10,30 6,0 10,9 10,20 0,11 5,20 10,20 6,0 10,14 10,30 0,17 5,30 10,30 6,0 10,14 10,30 0,17 5,30 10,30 6,0 10,14 10,30 0,17 5,30 10,30 6,0 10,9 10,20 0,11 5,20 10,20 6,0 10,7 10,16 0,46 81,61 118,21 12,-13 22,-35 22,-50 0,-15 5,-27 10,-27 6,0 10,-13 10,-30 0,-16 5,-30 10,-30 6,0 10,-18 10,-40 0,-22 5,-40 10,-40 6,0 10,-18 10,-40 0,-22 5,-40 10,-40 6,0 10,-18 10,-40 0,-22 5,-40 10,-40 6,0 10,-33 10,-80 0,-47 4,-80 10,-80 6,0 10,-32 10,-75 0,-67 2,-77 27,-101 16,-16 29,-22 31,-16 2,7 12,12 23,12 12,0 19,7 19,20 0,11 5,20 10,20 6,0 10,8 10,18 0,10 9,24 20,32 19,14 20,26 20,318 v 303 l 27,27 c 17,17 28,22 31,14 2,-7 12,-12 23,-12 12,0 19,-7 19,-20 0,-11 5,-20 10,-20 6,0 10,-9 10,-20 0,-11 5,-20 10,-20 6,0 10,-9 10,-20 0,-11 5,-20 10,-20 6,0 10,-22 10,-50 0,-27 -4,-50 -10,-50 -5,0 -10,-9 -10,-20 0,-11 -4,-20 -10,-20 -5,0 -10,-22 -10,-50 0,-27 -4,-50 -10,-50 -6,0 -10,-33 -10,-80 0,-47 4,-80 10,-80 6,0 10,-7 10,-16 0,-22 25,-44 50,-44 24,0 70,42 70,65 0,8 5,15 10,15 6,0 10,14 10,30 0,17 5,30 10,30 6,0 10,23 10,50 0,28 5,50 10,50 6,0 10,18 10,40 0,22 5,40 10,40 6,0 10,13 10,28 0,16 8,34 20,42 11,8 20,20 20,28 0,18 25,42 44,42 9,0 16,5 16,10 0,6 13,10 28,10 32,0 112,-74 112,-103 0,-9 5,-17 10,-17 6,0 10,-9 10,-20 0,-11 5,-20 10,-20 6,0 10,-18 10,-40 0,-22 5,-40 10,-40 6,0 10,-18 10,-40 0,-22 5,-40 10,-40 6,0 10,-18 10,-40 0,-22 5,-40 10,-40 6,0 10,-117 10,-330 0,-213 4,-330 10,-330 6,0 10,-9 10,-20 0,-11 5,-20 10,-20 6,0 10,-12 10,-26 0,-14 7,-32 15,-40 13,-13 19,-11 50,20 19,19 35,42 35,51 0,8 5,15 10,15 6,0 10,9 10,20 0,11 5,20 10,20 7,0 10,167 10,480 0,313 3,480 10,480 6,0 10,14 10,30 0,17 5,30 10,30 6,0 10,7 10,16 0,20 24,44 44,44 11,0 16,-9 16,-30 0,-16 5,-30 10,-30 6,0 10,-22 10,-50 0,-27 5,-50 10,-50 6,0 10,-30 10,-70 0,-40 4,-70 10,-70 6,0 10,-22 10,-50 0,-27 5,-50 10,-50 6,0 10,-22 10,-50 0,-27 5,-50 10,-50 6,0 10,-18 10,-40 0,-22 5,-40 10,-40 6,0 10,-18 10,-40 0,-22 5,-40 10,-40 6,0 10,-13 10,-30 0,-16 5,-30 10,-30 6,0 10,-8 10,-18 0,-9 9,-23 20,-30 11,-7 20,-21 20,-32 0,-11 5,-20 10,-20 6,0 10,-7 10,-16 0,-20 24,-44 44,-44 9,0 16,-4 16,-10 0,-5 14,-10 30,-10 17,0 30,5 30,10 0,6 12,10 26,10 29,0 54,21 54,44 0,9 5,16 10,16 6,0 10,14 10,30 0,17 5,30 10,30 6,0 10,37 10,90 0,53 4,90 10,90 6,0 10,9 10,20 0,13 7,20 20,20 13,0 20,-7 20,-18 0,-10 9,-24 20,-32 11,-8 20,-22 20,-32 0,-10 5,-18 10,-18 6,0 10,-9 10,-20 0,-11 5,-20 10,-20 6,0 10,-8 10,-18 0,-10 9,-24 20,-32 11,-8 20,-20 20,-28 0,-7 14,-25 30,-39 17,-13 30,-30 30,-37 0,-17 130,-146 147,-146 7,0 13,-4 13,-10 0,-5 9,-10 20,-10 11,0 20,-4 20,-10 0,-5 14,-10 30,-10 17,0 30,-4 30,-10 0,-5 18,-10 40,-10 22,0 40,-4 40,-10 0,-5 7,-10 16,-10 20,0 44,-24 44,-44 0,-9 5,-16 10,-16 6,0 10,-8 10,-18 0,-10 9,-24 20,-32 11,-8 20,-21 20,-30 0,-9 9,-22 20,-30 11,-8 20,-22 20,-32 0,-10 5,-18 10,-18 6,0 10,-6 10,-14 0,-25 129,-146 156,-146 17,0 24,6 24,20 0,11 5,20 10,20 6,0 10,18 10,40 0,22 5,40 10,40 6,0 10,23 10,50 0,28 -4,50 -10,50 -6,0 -10,30 -10,70 0,40 -4,70 -10,70 -5,0 -10,14 -10,30 0,17 -4,30 -10,30 -5,0 -10,14 -10,30 0,17 -4,30 -10,30 -5,0 -10,9 -10,20 0,11 -4,20 -10,20 -5,0 -10,14 -10,30 0,17 -4,30 -10,30 -5,0 -10,9 -10,20 0,11 -4,20 -10,20 -5,0 -10,9 -10,20 0,11 -4,20 -10,20 -5,0 -10,9 -10,20 0,11 -4,20 -10,20 -5,0 -10,14 -10,30 0,17 -4,30 -10,30 -5,0 -10,9 -10,20 0,11 -4,20 -10,20 -5,0 -10,8 -10,18 0,10 -9,24 -20,32 -11,8 -20,22 -20,32 0,10 -4,18 -10,18 -5,0 -10,9 -10,20 0,11 -4,20 -10,20 -5,0 -10,9 -10,20 0,11 -4,20 -10,20 -5,0 -10,9 -10,20 0,11 -4,20 -10,20 -5,0 -10,9 -10,20 0,11 -4,20 -10,20 -5,0 -10,8 -10,18 0,10 -9,24 -20,32 -11,8 -20,22 -20,32 0,10 -4,18 -10,18 -5,0 -10,9 -10,20 0,11 -4,20 -10,20 -5,0 -10,9 -10,20 0,11 -4,20 -10,20 -5,0 -10,9 -10,20 0,11 -4,20 -10,20 -5,0 -10,9 -10,20 0,12 7,20 18,20 18,0 322,-298 322,-316 0,-13 912,-924 925,-924 5,0 59,-49 119,-110 59,-60 113,-110 120,-110 6,0 37,-27 69,-60 31,-33 63,-60 69,-60 6,0 33,-22 60,-50 26,-28 53,-50 59,-50 6,0 24,-13 39,-30 15,-16 34,-30 41,-30 6,0 29,-18 50,-40 21,-22 44,-40 51,-40 8,0 20,-9 28,-20 8,-11 21,-20 28,-20 8,0 27,-13 42,-30 15,-16 34,-30 42,-30 7,0 20,-9 28,-20 8,-11 21,-20 30,-20 9,0 22,-9 30,-20 8,-11 21,-20 30,-20 9,0 22,-9 30,-20 8,-11 22,-20 32,-20 10,0 18,-4 18,-10 0,-5 9,-10 20,-10 11,0 20,-4 20,-10 0,-5 8,-10 18,-10 10,0 24,-9 32,-20 8,-11 21,-20 30,-20 9,0 22,-9 30,-20 8,-12 26,-20 42,-20 15,0 28,-4 28,-10 0,-5 9,-10 20,-10 11,0 20,-4 20,-10 0,-5 9,-10 20,-10 11,0 20,-4 20,-10 0,-5 13,-10 28,-10 16,0 34,-8 42,-20 8,-11 22,-20 32,-20 10,0 18,-4 18,-10 0,-5 14,-10 30,-10 17,0 30,-4 30,-10 0,-5 14,-10 30,-10 17,0 30,-4 30,-10 0,-5 9,-10 20,-10 11,0 20,-4 20,-10 0,-5 14,-10 30,-10 17,0 30,-4 30,-10 0,-5 9,-10 20,-10 11,0 20,-4 20,-10 0,-5 14,-10 30,-10 17,0 30,3 30,6 0,11 -29,34 -44,34 -9,0 -16,5 -16,10 0,6 -9,10 -20,10 -11,0 -20,5 -20,10 0,6 -13,10 -30,10 -16,0 -30,5 -30,10 0,6 -9,10 -20,10 -11,0 -20,5 -20,10 0,6 -9,10 -20,10 -11,0 -20,5 -20,10 0,6 -9,10 -20,10 -11,0 -20,5 -20,10 0,6 -8,10 -18,10 -10,0 -24,9 -32,20 -8,11 -22,20 -32,20 -10,0 -18,5 -18,10 0,6 -8,10 -18,10 -10,0 -24,9 -32,20 -8,11 -22,20 -32,20 -10,0 -18,5 -18,10 0,6 -7,10 -16,10 -9,0 -29,14 -44,30 -15,17 -34,30 -42,30 -7,0 -20,9 -28,20 -8,11 -21,20 -30,20 -9,0 -22,9 -30,20 -8,11 -21,20 -28,20 -8,0 -27,14 -42,30 -15,17 -34,30 -42,30 -7,0 -20,9 -28,20 -8,11 -21,20 -28,20 -7,0 -31,18 -52,40 -21,22 -45,40 -52,40 -7,0 -20,9 -28,20 -8,11 -21,20 -28,20 -7,0 -31,18 -52,40 -21,22 -44,40 -50,40 -6,0 -33,23 -60,50 -27,28 -54,50 -60,50 -6,0 -38,27 -70,60 -32,33 -64,60 -70,60 -6,0 -51,41 -100,90 -49,50 -94,90 -100,90 -6,0 -38,27 -70,60 -32,33 -64,60 -70,60 -14,0 -60,46 -60,60 0,14 -25,40 -39,40 -17,0 -701,688 -701,705 0,8 -7,15 -15,15 -18,0 -85,64 -85,80 0,6 -54,64 -120,130 -66,66 -120,124 -120,130 0,16 -47,60 -65,60 -8,0 -15,7 -15,15 0,9 -31,47 -70,85 -38,38 -70,74 -70,80 0,6 -31,42 -70,80 -38,38 -70,74 -70,80 0,6 -27,38 -60,70 -33,32 -60,64 -60,70 0,7 -13,25 -30,40 -16,15 -30,33 -30,40 0,7 -13,25 -30,40 -16,15 -30,35 -30,44 0,9 -4,16 -10,16 -5,0 -10,7 -10,16 0,20 -24,44 -44,44 -9,0 -16,5 -16,10 0,18 -35,11 -50,-10 z M 2560,3530 c 0,-39 -4,-50 -16,-50 -26,0 -44,26 -44,64 0,33 2,36 30,36 29,0 30,-1 30,-50 z m 0,-130 c 0,-30 -4,-40 -16,-40 -22,0 -53,32 -36,38 6,2 12,12 12,23 0,12 7,19 20,19 17,0 20,-7 20,-40 z m 3586,-234 c 8,-8 14,-26 14,-40 0,-14 5,-26 10,-26 6,0 10,-9 10,-20 0,-12 -7,-20 -16,-20 -20,0 -44,24 -44,44 0,9 -4,16 -10,16 -14,0 -12,28 3,45 15,18 16,18 33,1 z"
      />
      <path
        id="pVTpCdZAm"
        d="m 1160,3150 c 0,-5 -7,-10 -16,-10 -20,0 -44,-24 -44,-44 0,-9 -4,-16 -10,-16 -5,0 -10,-13 -10,-30 0,-16 -4,-30 -10,-30 -5,0 -10,-9 -10,-20 0,-11 -4,-20 -10,-20 -5,0 -10,-22 -10,-50 0,-27 -4,-50 -10,-50 -6,0 -10,-57 -10,-150 0,-93 -4,-150 -10,-150 -6,0 -10,-50 -10,-130 0,-80 -4,-130 -10,-130 -5,0 -10,-9 -10,-20 0,-11 -4,-20 -10,-20 -5,0 -10,-9 -10,-20 0,-11 -4,-20 -10,-20 -5,0 -10,-8 -10,-18 0,-10 -9,-24 -20,-32 -11,-8 -20,-22 -20,-32 0,-10 -4,-18 -10,-18 -5,0 -10,-9 -10,-20 0,-11 -4,-20 -10,-20 -5,0 -10,-9 -10,-20 0,-11 -4,-20 -10,-20 -5,0 -10,-8 -10,-18 0,-10 -9,-24 -20,-32 -11,-8 -20,-22 -20,-32 0,-10 -4,-18 -10,-18 -5,0 -10,-9 -10,-20 0,-11 -4,-20 -10,-20 -5,0 -10,-13 -10,-30 0,-16 -4,-30 -10,-30 -5,0 -10,-9 -10,-20 0,-11 -4,-20 -10,-20 -5,0 -10,-10 -10,-23 0,-26 -21,-77 -32,-77 -5,0 -8,-9 -8,-20 0,-11 -4,-20 -10,-20 -5,0 -10,-13 -10,-30 0,-16 -4,-30 -10,-30 -5,0 -10,-18 -10,-40 0,-22 -4,-40 -10,-40 -6,0 -10,-30 -10,-70 0,-40 -4,-70 -10,-70 -6,0 -10,-73 -10,-200 0,-127 4,-200 10,-200 6,0 10,-22 10,-50 0,-27 5,-50 10,-50 6,0 10,-13 10,-30 0,-16 5,-30 10,-30 6,0 10,-13 10,-30 0,-16 5,-30 10,-30 6,0 10,-8 10,-18 0,-10 9,-24 20,-32 11,-8 20,-21 20,-30 0,-9 9,-22 20,-30 11,-8 20,-21 20,-30 0,-9 9,-22 20,-30 11,-8 20,-22 20,-32 0,-10 5,-18 10,-18 6,0 10,-13 10,-30 0,-29 2,-30 46,-30 38,0 51,-5 74,-30 15,-16 35,-30 44,-30 9,0 16,-4 16,-10 0,-5 14,-10 30,-10 17,0 30,-4 30,-10 0,-6 67,-10 180,-10 113,0 180,4 180,10 0,6 23,10 50,10 28,0 50,5 50,10 0,6 18,10 40,10 22,0 40,5 40,10 0,6 9,10 20,10 11,0 20,5 20,10 0,6 9,10 20,10 11,0 20,5 20,10 0,6 9,10 20,10 11,0 20,5 20,10 0,6 8,10 18,10 10,0 24,9 32,20 8,11 21,20 28,20 8,0 27,14 42,30 15,17 35,30 44,30 9,0 16,7 16,16 0,8 18,33 40,54 22,21 40,46 40,54 0,9 5,16 10,16 6,0 10,9 10,20 0,11 5,20 10,20 6,0 10,18 10,40 0,22 5,40 10,40 6,0 10,50 10,130 0,80 -4,130 -10,130 -5,0 -10,14 -10,30 0,17 -4,30 -10,30 -5,0 -10,14 -10,30 0,17 -4,30 -10,30 -5,0 -10,9 -10,20 0,11 -4,20 -10,20 -5,0 -10,8 -10,18 0,10 -9,24 -20,32 -11,8 -20,22 -20,32 0,10 -4,18 -10,18 -15,0 -12,29 4,46 17,16 66,19 66,4 0,-5 14,-10 30,-10 17,0 30,-4 30,-10 0,-6 30,-10 69,-10 46,0 71,-4 75,-12 5,-10 7,-10 12,0 3,6 12,12 20,12 20,0 64,45 64,65 0,8 5,15 10,15 6,0 10,23 10,50 0,28 -4,50 -10,50 -5,0 -10,9 -10,20 0,11 -4,20 -10,20 -5,0 -10,8 -10,18 0,10 -9,24 -20,32 -11,8 -20,21 -20,28 0,7 -18,31 -40,52 -22,21 -40,44 -40,50 0,6 -18,29 -40,50 -22,21 -40,45 -40,52 0,7 -9,20 -20,28 -11,8 -20,22 -20,32 0,10 -4,18 -10,18 -5,0 -10,7 -10,16 0,9 -13,29 -30,44 -16,15 -30,34 -30,42 0,7 -9,20 -20,28 -11,8 -20,22 -20,32 0,10 -4,18 -10,18 -5,0 -10,9 -10,20 0,11 -4,20 -10,20 -5,0 -10,9 -10,20 0,11 -4,20 -10,20 -5,0 -10,9 -10,20 0,11 -4,20 -10,20 -5,0 -10,14 -10,30 0,17 -4,30 -10,30 -5,0 -10,14 -10,30 0,17 -4,30 -10,30 -6,0 -10,32 -10,76 0,75 11,104 40,104 7,0 25,14 42,32 24,26 31,29 39,17 8,-12 10,-12 20,1 8,11 12,12 16,3 2,-7 18,-13 34,-13 16,0 29,-4 29,-10 0,-5 14,-10 30,-10 17,0 30,-4 30,-10 0,-5 14,-10 30,-10 17,0 30,-4 30,-10 0,-5 9,-10 20,-10 11,0 20,-4 20,-10 0,-5 7,-10 16,-10 18,0 44,-23 44,-40 0,-15 25,-40 40,-40 17,0 40,-26 40,-44 0,-9 5,-16 10,-16 6,0 10,-9 10,-20 0,-11 5,-20 10,-20 6,0 10,-9 10,-20 0,-11 5,-20 10,-20 6,0 10,-13 10,-30 0,-16 -4,-30 -10,-30 -5,0 -10,-22 -10,-50 0,-27 -4,-50 -10,-50 -6,0 -10,-33 -10,-80 0,-47 -4,-80 -10,-80 -6,0 -10,-53 -10,-140 0,-87 4,-140 10,-140 6,0 10,-18 10,-40 0,-22 5,-40 10,-40 6,0 10,-13 10,-30 0,-16 5,-30 10,-30 6,0 10,-7 10,-16 0,-26 26,-44 64,-44 35,0 36,1 36,40 0,22 5,40 10,40 6,0 10,18 10,40 0,22 5,40 10,40 6,0 10,63 10,170 0,107 4,170 10,170 6,0 10,27 10,60 0,33 4,60 10,60 6,0 10,18 10,40 0,22 5,40 10,40 6,0 10,14 10,30 0,17 5,30 10,30 6,0 10,9 10,20 0,11 5,20 10,20 6,0 10,8 10,18 0,10 9,24 20,32 11,8 20,22 20,32 0,11 7,18 20,18 11,0 20,5 20,10 0,6 26,10 58,10 56,0 59,-1 110,-53 37,-37 52,-60 52,-80 0,-15 5,-27 10,-27 6,0 10,-9 10,-20 0,-13 7,-20 20,-20 16,0 20,7 20,30 0,17 -4,30 -10,30 -5,0 -10,7 -10,16 0,8 -14,27 -30,41 -17,13 -30,31 -30,39 0,18 -44,64 -61,64 -6,0 -24,14 -39,30 -15,17 -35,30 -44,30 -9,0 -16,5 -16,10 0,6 -18,10 -40,10 -22,0 -40,5 -40,10 0,6 -13,10 -30,10 -16,0 -30,-4 -30,-10 0,-5 -9,-10 -20,-10 -11,0 -20,-4 -20,-10 0,-5 -7,-10 -15,-10 -20,0 -85,-65 -85,-85 0,-8 -7,-15 -15,-15 -18,0 -65,44 -65,60 0,16 -128,140 -145,140 -8,0 -15,5 -15,10 0,6 -8,10 -18,10 -10,0 -24,9 -32,20 -8,12 -26,20 -42,20 -15,0 -28,5 -28,10 0,6 -13,10 -30,10 -16,0 -30,5 -30,10 0,6 -27,10 -60,10 -33,0 -60,4 -60,10 0,6 -33,10 -80,10 -47,0 -80,-4 -80,-10 0,-5 -11,-10 -25,-10 -29,0 -115,-79 -115,-105 0,-8 -4,-15 -10,-15 -6,0 -10,-43 -10,-110 0,-67 4,-110 10,-110 6,0 10,-18 10,-40 0,-22 5,-40 10,-40 6,0 10,-13 10,-30 0,-16 5,-30 10,-30 6,0 10,-8 10,-18 0,-10 9,-24 20,-32 11,-8 20,-22 20,-32 0,-10 5,-18 10,-18 6,0 10,-8 10,-18 0,-10 9,-24 20,-32 11,-8 20,-22 20,-32 0,-10 5,-18 10,-18 6,0 10,-7 10,-16 0,-9 14,-29 30,-44 17,-15 30,-35 30,-44 0,-9 5,-16 10,-16 6,0 10,-7 10,-15 0,-9 18,-33 40,-54 22,-21 40,-44 40,-50 0,-7 14,-26 30,-41 17,-15 30,-33 30,-39 0,-6 23,-33 50,-59 28,-27 50,-56 50,-65 0,-9 5,-17 10,-17 6,0 10,-7 10,-16 0,-9 13,-29 30,-44 35,-32 39,-60 10,-60 -11,0 -20,-4 -20,-10 0,-5 -18,-10 -40,-10 -22,0 -40,5 -40,10 0,6 -18,10 -40,10 -22,0 -40,5 -40,10 0,6 -13,10 -30,10 -16,0 -30,5 -30,10 0,6 -17,10 -38,10 -26,0 -42,6 -52,20 -8,11 -20,20 -28,20 -7,0 -44,31 -82,70 -38,39 -76,70 -85,70 -8,0 -15,5 -15,10 0,6 -7,10 -16,10 -9,0 -29,14 -44,30 -15,17 -35,30 -44,30 -9,0 -16,5 -16,10 0,6 -9,10 -20,10 -11,0 -20,5 -20,10 0,6 -13,10 -30,10 -16,0 -30,5 -30,10 0,6 -9,10 -20,10 -11,0 -20,5 -20,10 0,6 -13,10 -30,10 -16,0 -30,5 -30,10 0,6 -16,10 -36,10 -59,0 -64,13 -64,154 0,77 4,126 10,126 6,0 10,77 10,210 0,133 4,210 10,210 6,0 10,43 10,110 0,67 4,110 10,110 6,0 10,14 10,30 0,17 5,30 10,30 6,0 10,33 10,80 0,47 4,80 10,80 6,0 10,18 10,40 0,22 -4,40 -10,40 -5,0 -10,9 -10,20 0,13 -7,20 -20,20 -11,0 -20,5 -20,10 0,6 -13,10 -30,10 -16,0 -30,-4 -30,-10 z M 980,2034 v -126 l -30,-28 c -35,-33 -38,-50 -10,-70 17,-12 20,-26 20,-92 0,-45 -4,-78 -10,-78 -6,0 -10,-27 -10,-60 0,-33 -4,-60 -10,-60 -6,0 -10,-43 -10,-110 0,-67 -4,-110 -10,-110 -6,0 -10,-37 -10,-90 0,-53 -4,-90 -10,-90 -6,0 -10,-30 -10,-70 0,-40 -4,-70 -10,-70 -6,0 -10,-30 -10,-70 0,-40 -4,-70 -10,-70 -5,0 -10,-21 -10,-46 0,-47 -16,-74 -44,-74 -9,0 -16,8 -16,18 0,10 -9,24 -20,32 -11,8 -20,22 -20,32 0,10 -4,18 -10,18 -5,0 -10,9 -10,20 0,11 -4,20 -10,20 -5,0 -10,14 -10,30 0,17 -4,30 -10,30 -5,0 -10,14 -10,30 0,17 -4,30 -10,30 -5,0 -10,18 -10,40 0,22 -4,40 -10,40 -5,0 -10,18 -10,40 0,22 -4,40 -10,40 -15,0 -13,97 3,103 9,4 8,8 -3,17 -11,9 -12,13 -2,17 8,3 12,28 12,74 0,39 4,69 10,69 6,0 10,27 10,60 0,33 4,60 10,60 6,0 10,18 10,40 0,22 5,40 10,40 6,0 10,14 10,30 0,17 5,30 10,30 6,0 10,13 10,28 0,16 8,34 20,42 12,8 20,26 20,42 0,15 5,28 10,28 6,0 10,9 10,20 0,11 5,20 10,20 6,0 10,9 10,20 0,11 5,20 10,20 6,0 10,9 10,20 0,11 5,20 10,20 6,0 10,8 10,18 0,10 9,24 20,32 11,8 20,26 20,40 0,14 9,32 20,40 11,8 20,20 20,28 0,13 40,60 53,61 4,1 7,-56 7,-125 z m 260,-324 c 0,-5 14,-10 30,-10 17,0 30,-4 30,-10 0,-5 9,-10 20,-10 11,0 20,-4 20,-10 0,-5 9,-10 20,-10 11,0 20,-4 20,-10 0,-5 13,-10 28,-10 16,0 34,-8 42,-20 8,-11 21,-20 29,-20 20,0 221,-201 221,-220 0,-9 9,-22 20,-30 11,-8 20,-22 20,-32 0,-10 5,-18 10,-18 6,0 10,-8 10,-18 0,-10 9,-24 20,-32 11,-8 20,-22 20,-32 0,-10 5,-18 10,-18 6,0 10,-13 10,-30 0,-16 5,-30 10,-30 6,0 10,-22 10,-50 0,-27 5,-50 10,-50 6,0 10,-18 10,-40 0,-22 -4,-40 -10,-40 -6,0 -10,-30 -10,-70 0,-40 -4,-70 -10,-70 -5,0 -10,-8 -10,-18 0,-10 -9,-24 -20,-32 -11,-8 -20,-22 -20,-32 0,-11 -7,-18 -20,-18 -11,0 -20,-7 -20,-15 0,-20 -45,-65 -65,-65 -8,0 -15,-4 -15,-10 0,-5 -8,-10 -18,-10 -10,0 -24,-9 -32,-20 -8,-12 -26,-20 -42,-20 -15,0 -28,-4 -28,-10 0,-5 -9,-10 -20,-10 -11,0 -20,-4 -20,-10 0,-5 -9,-10 -20,-10 -11,0 -20,-4 -20,-10 0,-5 -13,-10 -30,-10 -16,0 -30,-4 -30,-10 0,-5 -13,-10 -30,-10 -16,0 -30,-4 -30,-10 0,-6 -50,-10 -130,-10 -80,0 -130,4 -130,10 0,6 -11,10 -25,10 -16,0 -39,14 -61,36 l -36,35 21,18 c 12,10 21,30 21,45 0,14 5,26 10,26 6,0 10,14 10,30 0,17 5,30 10,30 6,0 10,27 10,60 0,33 4,60 10,60 6,0 10,30 10,70 0,40 4,70 10,70 6,0 10,27 10,60 0,33 4,60 10,60 6,0 10,30 10,70 0,40 4,70 10,70 6,0 10,30 10,70 0,40 4,70 10,70 6,0 10,47 10,120 0,73 4,120 10,120 6,0 10,23 10,50 v 50 h 40 c 22,0 40,-4 40,-10 z"
      />
      <path
        id="p1F400V1cD"
        d="m 3123,2755 c -13,-13 -23,-31 -23,-40 0,-8 -4,-15 -10,-15 -5,0 -10,-9 -10,-20 0,-11 -4,-20 -10,-20 -5,0 -10,-13 -10,-30 0,-16 -4,-30 -10,-30 -6,0 -10,-30 -10,-70 0,-40 -4,-70 -10,-70 -7,0 -10,-193 -10,-560 0,-367 3,-560 10,-560 6,0 10,-18 10,-40 0,-22 5,-40 10,-40 6,0 10,-18 10,-40 0,-36 2,-40 26,-40 29,0 54,21 54,44 0,9 5,16 10,16 6,0 10,9 10,20 0,11 5,20 10,20 6,0 10,14 10,30 0,17 5,30 10,30 6,0 10,105 10,296 0,249 2,298 15,310 24,24 45,-5 45,-60 0,-25 5,-46 10,-46 6,0 10,-18 10,-40 0,-22 5,-40 10,-40 6,0 10,-18 10,-40 0,-22 5,-40 10,-40 6,0 10,-9 10,-20 0,-11 5,-20 10,-20 6,0 10,-9 10,-20 0,-11 5,-20 10,-20 6,0 10,-9 10,-20 0,-11 5,-20 10,-20 6,0 10,-9 10,-20 0,-11 5,-20 10,-20 6,0 10,-9 10,-20 0,-11 5,-20 10,-20 6,0 10,-9 10,-20 0,-11 5,-20 10,-20 6,0 10,-8 10,-17 0,-10 14,-29 30,-42 17,-13 30,-32 30,-42 0,-11 5,-19 10,-19 6,0 10,-8 10,-18 0,-10 9,-24 20,-32 11,-8 20,-21 20,-28 0,-8 14,-27 30,-42 17,-15 30,-33 30,-40 0,-7 14,-25 30,-40 17,-15 30,-33 30,-40 0,-16 25,-40 42,-40 8,0 20,-9 28,-20 8,-11 22,-20 32,-20 10,0 18,-4 18,-10 0,-5 9,-10 20,-10 11,0 20,-4 20,-10 0,-5 9,-10 20,-10 11,0 20,-4 20,-10 0,-5 14,-10 30,-10 17,0 30,-4 30,-10 0,-5 25,-10 55,-10 46,0 60,4 80,25 14,13 25,31 25,40 0,8 5,15 10,15 6,0 10,37 10,90 0,53 -4,90 -10,90 -5,0 -10,14 -10,30 0,17 -4,30 -10,30 -5,0 -10,18 -10,40 0,22 -4,40 -10,40 -5,0 -10,18 -10,40 0,22 -4,40 -10,40 -5,0 -10,18 -10,40 0,22 -4,40 -10,40 -5,0 -10,18 -10,40 0,22 -4,40 -10,40 -5,0 -10,14 -10,30 0,17 -4,30 -10,30 -5,0 -10,14 -10,30 0,17 -4,30 -10,30 -5,0 -10,23 -10,50 0,28 -4,50 -10,50 -5,0 -10,18 -10,40 0,22 -4,40 -10,40 -5,0 -10,23 -10,50 0,28 -4,50 -10,50 -5,0 -10,18 -10,40 0,22 -4,40 -10,40 -5,0 -10,14 -10,30 0,17 -4,30 -10,30 -5,0 -10,23 -10,50 0,28 -4,50 -10,50 -6,0 -10,30 -10,69 0,46 -4,71 -12,73 -9,3 -8,9 4,21 21,21 48,22 48,1 0,-9 14,-29 30,-44 17,-15 30,-34 30,-42 0,-7 9,-20 20,-28 11,-8 20,-22 20,-32 0,-10 5,-18 10,-18 6,0 10,-9 10,-20 0,-11 5,-20 10,-20 6,0 10,-7 10,-16 0,-9 14,-29 30,-44 17,-15 30,-35 30,-44 0,-9 5,-16 10,-16 6,0 10,-9 10,-20 0,-11 5,-20 10,-20 6,0 10,-9 10,-20 0,-11 5,-20 10,-20 6,0 10,-9 10,-20 0,-11 5,-20 10,-20 6,0 10,-9 10,-20 0,-13 7,-20 20,-20 13,0 20,-7 20,-20 0,-11 5,-20 10,-20 6,0 10,-8 10,-18 0,-10 9,-24 20,-32 11,-8 20,-20 20,-26 0,-17 149,-164 166,-164 8,0 14,-4 14,-10 0,-5 9,-10 20,-10 11,0 20,-4 20,-10 0,-5 13,-10 29,-10 16,0 32,-6 35,-12 5,-10 7,-10 12,0 3,6 12,12 20,12 25,0 84,67 84,95 0,21 5,25 28,25 21,0 45,-18 105,-80 43,-44 84,-80 90,-80 7,0 19,-9 27,-20 8,-11 21,-20 28,-20 8,0 27,-13 42,-30 15,-16 35,-30 44,-30 9,0 16,-4 16,-10 0,-5 18,-10 40,-10 22,0 40,-4 40,-10 0,-5 9,-10 20,-10 11,0 20,-4 20,-10 0,-6 30,-10 70,-10 63,0 70,2 70,20 0,11 5,20 10,20 6,0 10,14 10,30 0,17 -4,30 -10,30 -5,0 -10,9 -10,20 0,11 -4,20 -10,20 -5,0 -10,7 -10,15 0,17 -284,305 -301,305 -5,0 -32,23 -59,50 -27,28 -56,50 -64,50 -9,0 -16,5 -16,10 0,6 -7,10 -16,10 -9,0 -29,14 -44,30 -15,17 -35,30 -44,30 -9,0 -16,5 -16,10 0,6 -9,10 -20,10 -11,0 -20,5 -20,10 0,6 -9,10 -20,10 -11,0 -20,5 -20,10 0,6 -9,10 -20,10 -13,0 -20,7 -20,20 0,11 -4,20 -10,20 -15,0 -12,49 4,66 8,8 22,14 30,14 9,0 16,5 16,10 0,6 30,10 70,10 40,0 70,-4 70,-10 0,-5 8,-10 17,-10 9,0 38,-22 65,-50 26,-27 53,-50 58,-50 14,0 60,-46 60,-60 0,-15 25,-40 40,-40 14,0 40,-25 40,-39 0,-6 27,-37 60,-68 33,-32 60,-64 60,-71 0,-7 18,-30 40,-51 22,-21 40,-44 40,-50 0,-7 14,-26 30,-41 17,-15 30,-34 30,-42 0,-7 9,-20 20,-28 11,-8 20,-21 20,-28 0,-8 14,-27 30,-42 17,-15 30,-34 30,-42 0,-7 9,-20 20,-28 11,-8 20,-20 20,-28 0,-7 18,-30 40,-51 22,-21 40,-44 40,-52 0,-8 9,-21 20,-29 11,-8 20,-20 20,-28 0,-7 18,-30 40,-51 22,-21 40,-44 40,-52 0,-8 9,-21 20,-29 11,-8 20,-21 20,-28 0,-8 14,-27 30,-42 17,-15 30,-34 30,-42 0,-7 9,-20 20,-28 11,-8 20,-21 20,-30 0,-9 9,-22 20,-30 11,-8 20,-20 20,-28 0,-25 48,-62 80,-62 54,0 60,15 60,154 0,77 -4,126 -10,126 -5,0 -10,14 -10,30 0,17 -4,30 -10,30 -5,0 -10,9 -10,20 0,11 -4,20 -10,20 -5,0 -10,9 -10,20 0,11 -4,20 -10,20 -5,0 -10,9 -10,20 0,11 -4,20 -10,20 -5,0 -10,9 -10,20 0,11 -4,20 -10,20 -5,0 -10,9 -10,20 0,11 -4,20 -10,20 -5,0 -10,14 -10,30 0,17 -4,30 -10,30 -5,0 -10,8 -10,18 0,10 -9,24 -20,32 -12,8 -20,26 -20,42 0,15 -4,28 -10,28 -5,0 -10,9 -10,20 0,11 -4,20 -10,20 -5,0 -10,9 -10,20 0,11 -4,20 -10,20 -5,0 -10,14 -10,30 0,17 -4,30 -10,30 -5,0 -10,9 -10,20 0,11 -4,20 -10,20 -5,0 -10,9 -10,20 0,15 7,20 28,20 16,0 34,-8 42,-20 8,-11 21,-20 28,-20 8,0 27,-13 42,-30 15,-16 33,-30 40,-30 7,0 25,-13 40,-30 15,-16 34,-30 41,-30 6,0 29,-18 50,-40 21,-22 44,-40 51,-40 8,0 20,-9 28,-20 8,-11 21,-20 29,-20 8,0 31,-18 52,-40 21,-22 45,-40 54,-40 8,0 15,-4 15,-10 0,-5 8,-10 18,-10 10,0 24,-9 32,-20 8,-11 21,-20 28,-20 8,0 27,-13 42,-30 15,-16 34,-30 42,-30 7,0 20,-9 28,-20 8,-11 22,-20 32,-20 10,0 18,-4 18,-10 0,-5 7,-10 16,-10 9,0 29,-13 44,-30 15,-16 35,-30 44,-30 9,0 16,-4 16,-10 0,-5 9,-10 20,-10 11,0 20,-4 20,-10 0,-5 9,-10 20,-10 11,0 20,-4 20,-10 0,-5 8,-10 18,-10 10,0 24,-9 32,-20 8,-11 21,-20 30,-20 9,0 22,-9 30,-20 8,-11 22,-20 32,-20 10,0 18,-4 18,-10 0,-5 9,-10 20,-10 11,0 20,-4 20,-10 0,-5 9,-10 20,-10 11,0 20,-4 20,-10 0,-5 8,-10 18,-10 10,0 24,-9 32,-20 8,-11 22,-20 32,-20 10,0 18,-4 18,-10 0,-5 9,-10 20,-10 11,0 20,-4 20,-10 0,-5 9,-10 20,-10 11,0 20,-4 20,-10 0,-5 9,-10 20,-10 11,0 20,-4 20,-10 0,-5 8,-10 18,-10 10,0 24,-9 32,-20 8,-11 22,-20 32,-20 10,0 18,-4 18,-10 0,-5 9,-10 20,-10 11,0 20,-4 20,-10 0,-5 14,-10 30,-10 17,0 30,-4 30,-10 0,-5 9,-10 20,-10 11,0 20,-4 20,-10 0,-5 14,-10 30,-10 17,0 30,-4 30,-10 0,-5 9,-10 20,-10 11,0 20,-4 20,-10 0,-6 33,-10 80,-10 47,0 80,4 80,10 0,6 7,10 16,10 23,0 44,25 44,54 0,14 5,26 10,26 6,0 10,40 10,100 0,60 -4,100 -10,100 -5,0 -10,12 -10,26 0,17 -16,41 -50,74 -28,27 -50,56 -50,64 0,9 -7,16 -15,16 -9,0 -51,36 -95,80 -44,44 -84,80 -91,80 -6,0 -24,14 -39,30 -31,33 -45,37 -66,16 -12,-12 -7,-21 36,-63 27,-26 50,-55 50,-63 0,-9 9,-22 20,-30 11,-8 20,-21 20,-28 0,-8 13,-27 30,-42 16,-15 30,-35 30,-44 0,-9 5,-16 10,-16 6,0 10,-9 10,-20 0,-11 5,-20 10,-20 6,0 10,-9 10,-20 0,-11 5,-20 10,-20 6,0 10,-9 10,-20 0,-11 5,-20 10,-20 6,0 10,-9 10,-20 0,-11 5,-20 10,-20 6,0 10,-18 10,-39 0,-22 5,-41 12,-43 9,-3 8,-9 -4,-21 -18,-19 -48,-23 -48,-7 0,6 -18,10 -40,10 -22,0 -40,5 -40,10 0,6 -9,10 -20,10 -11,0 -20,5 -20,10 0,6 -9,10 -20,10 -11,0 -20,5 -20,10 0,6 -9,10 -20,10 -11,0 -20,5 -20,10 0,6 -9,10 -20,10 -11,0 -20,5 -20,10 0,6 -9,10 -20,10 -11,0 -20,5 -20,10 0,6 -9,10 -20,10 -11,0 -20,5 -20,10 0,6 -9,10 -20,10 -11,0 -20,5 -20,10 0,6 -8,10 -18,10 -10,0 -24,9 -32,20 -8,11 -22,20 -32,20 -10,0 -18,5 -18,10 0,6 -9,10 -20,10 -11,0 -20,5 -20,10 0,6 -9,10 -20,10 -11,0 -20,5 -20,10 0,6 -9,10 -20,10 -11,0 -20,5 -20,10 0,6 -9,10 -20,10 -11,0 -20,5 -20,10 0,6 -8,10 -18,10 -10,0 -24,9 -32,20 -8,11 -22,20 -32,20 -10,0 -18,5 -18,10 0,6 -9,10 -20,10 -11,0 -20,5 -20,10 0,6 -9,10 -20,10 -11,0 -20,5 -20,10 0,6 -8,10 -18,10 -10,0 -24,9 -32,20 -8,11 -22,20 -32,20 -10,0 -18,5 -18,10 0,6 -8,10 -18,10 -10,0 -24,9 -32,20 -8,11 -22,20 -32,20 -10,0 -18,5 -18,10 0,6 -8,10 -18,10 -10,0 -24,9 -32,20 -8,11 -21,20 -30,20 -9,0 -22,9 -30,20 -8,11 -21,20 -30,20 -9,0 -22,9 -30,20 -8,11 -21,20 -28,20 -8,0 -27,14 -42,30 -15,17 -34,30 -42,30 -7,0 -20,9 -28,20 -8,11 -21,20 -30,20 -9,0 -22,9 -30,20 -8,11 -21,20 -28,20 -8,0 -27,14 -42,30 -15,17 -33,30 -40,30 -7,0 -25,14 -40,30 -15,17 -33,30 -40,30 -7,0 -25,14 -40,30 -15,17 -33,30 -40,30 -6,0 -29,18 -50,40 -21,22 -44,40 -50,40 -6,0 -29,18 -50,40 -21,22 -44,40 -50,40 -6,0 -29,18 -50,40 -21,22 -44,40 -50,40 -6,0 -38,27 -70,60 -58,59 -60,60 -114,60 -49,0 -56,-2 -56,-20 0,-11 -4,-20 -10,-20 -5,0 -10,-22 -10,-50 0,-27 5,-50 10,-50 6,0 10,-8 10,-18 0,-10 9,-24 20,-32 11,-8 20,-21 20,-30 0,-9 9,-22 20,-30 11,-8 20,-22 20,-32 0,-10 5,-18 10,-18 6,0 10,-9 10,-20 0,-11 5,-20 10,-20 6,0 10,-13 10,-28 0,-16 8,-34 20,-42 11,-8 20,-22 20,-32 0,-10 5,-18 10,-18 6,0 10,-9 10,-20 0,-11 5,-20 10,-20 6,0 10,-9 10,-20 0,-11 5,-20 10,-20 6,0 10,-13 10,-30 0,-16 5,-30 10,-30 6,0 10,-9 10,-20 0,-11 5,-20 10,-20 6,0 10,-9 10,-20 0,-11 5,-20 10,-20 6,0 10,-13 10,-30 0,-16 5,-30 10,-30 6,0 10,-4 10,-10 0,-5 -7,-10 -15,-10 -19,0 -85,64 -85,82 0,8 -9,20 -20,28 -11,8 -20,21 -20,28 0,8 -14,27 -30,42 -16,15 -30,33 -30,40 0,7 -13,25 -30,40 -16,15 -30,33 -30,40 0,7 -13,25 -30,40 -16,15 -30,33 -30,40 0,7 -13,25 -30,40 -16,15 -30,33 -30,40 0,6 -27,38 -60,70 -33,32 -60,64 -60,70 0,14 -46,60 -60,60 -15,0 -40,25 -40,40 0,14 -46,60 -60,60 -6,0 -33,23 -60,50 -27,28 -56,50 -64,50 -9,0 -16,5 -16,10 0,6 -9,10 -20,10 -11,0 -20,5 -20,10 0,6 -22,10 -50,10 -27,0 -50,5 -50,10 0,6 -22,10 -50,10 -27,0 -50,-4 -50,-10 0,-5 -22,-10 -50,-10 -27,0 -50,-4 -50,-10 0,-5 -7,-10 -16,-10 -8,0 -33,-18 -54,-40 -22,-22 -48,-40 -60,-40 -12,0 -38,18 -60,40 -21,22 -46,40 -54,40 -9,0 -16,5 -16,10 0,6 -13,10 -30,10 -16,0 -30,5 -30,10 0,15 -29,12 -46,-4 -8,-8 -14,-26 -14,-40 0,-21 -5,-26 -25,-26 -27,0 -75,40 -75,62 0,8 -9,20 -20,28 -11,8 -20,21 -20,28 0,8 -13,27 -30,42 -16,15 -30,33 -30,39 0,17 -87,101 -105,101 -8,0 -15,5 -15,10 0,6 -13,10 -30,10 -16,0 -30,-4 -30,-10 0,-5 -9,-10 -20,-10 -11,0 -20,-4 -20,-10 0,-5 -9,-10 -20,-10 -13,0 -20,-7 -20,-20 0,-11 -4,-20 -10,-20 -6,0 -10,-40 -10,-100 0,-60 4,-100 10,-100 6,0 10,-30 10,-70 0,-40 4,-70 10,-70 6,0 10,-18 10,-40 0,-22 5,-40 10,-40 6,0 10,-13 10,-30 0,-16 5,-30 10,-30 6,0 10,-13 10,-30 0,-16 5,-30 10,-30 6,0 10,-22 10,-50 0,-27 5,-50 10,-50 6,0 10,-18 10,-40 0,-22 5,-40 10,-40 6,0 10,-22 10,-50 0,-27 5,-50 10,-50 6,0 10,-13 10,-30 0,-16 5,-30 10,-30 6,0 10,-9 10,-20 0,-11 5,-20 10,-20 6,0 10,-18 10,-40 0,-22 5,-40 10,-40 6,0 10,-18 10,-40 0,-22 5,-40 10,-40 6,0 10,-22 10,-50 0,-27 5,-50 10,-50 6,0 10,-18 10,-40 0,-22 5,-40 10,-40 6,0 10,-18 10,-40 0,-22 5,-40 10,-40 6,0 10,-9 10,-20 0,-11 5,-20 10,-20 15,0 12,-49 -4,-66 -17,-16 -46,-19 -46,-4 0,6 -13,10 -28,10 -16,0 -34,8 -42,20 -8,11 -20,20 -27,20 -16,0 -103,85 -103,101 0,6 -18,28 -40,49 -22,21 -40,45 -40,52 0,7 -9,20 -20,28 -11,8 -20,21 -20,30 0,9 -9,22 -20,30 -11,8 -20,21 -20,28 0,8 -13,27 -30,42 -16,15 -30,35 -30,44 0,9 -4,16 -10,16 -5,0 -10,9 -10,20 0,11 -4,20 -10,20 -5,0 -10,9 -10,20 0,11 -4,20 -10,20 -5,0 -10,9 -10,20 0,11 -4,20 -10,20 -5,0 -10,9 -10,20 0,11 -4,20 -10,20 -5,0 -10,9 -10,20 0,11 -4,20 -10,20 -5,0 -10,14 -10,30 0,17 -4,30 -10,30 -5,0 -10,18 -10,40 0,22 -4,40 -10,40 -5,0 -10,23 -10,50 0,28 -4,50 -10,50 -5,0 -10,18 -10,40 0,22 -4,40 -10,40 -5,0 -10,18 -10,40 0,22 -4,40 -10,40 -5,0 -10,23 -10,50 0,28 -4,50 -10,50 -6,0 -10,80 -10,220 0,140 4,220 10,220 6,0 10,21 10,46 0,47 -16,74 -44,74 -9,0 -16,5 -16,10 0,19 -55,9 -77,-15 z m 1047,-595 c 8,-11 21,-20 30,-20 18,-1 120,-102 120,-120 0,-6 14,-25 30,-40 17,-15 30,-35 30,-44 0,-9 5,-16 10,-16 6,0 10,-7 10,-16 0,-9 14,-29 30,-44 17,-15 30,-35 30,-44 0,-9 5,-16 10,-16 6,0 10,-9 10,-20 0,-11 5,-20 10,-20 6,0 10,-9 10,-20 0,-11 5,-20 10,-20 6,0 10,-18 10,-40 0,-33 -3,-40 -20,-40 -11,0 -20,5 -20,10 0,6 -7,10 -15,10 -18,0 -125,104 -125,121 0,6 -13,24 -30,39 -16,15 -30,34 -30,42 0,7 -9,20 -20,28 -11,8 -20,21 -20,30 0,9 -9,22 -20,30 -11,8 -20,22 -20,32 0,10 -4,18 -10,18 -5,0 -10,9 -10,20 0,11 -4,20 -10,20 -5,0 -10,9 -10,20 0,11 -4,20 -10,20 -5,0 -10,8 -10,18 0,10 -9,24 -20,32 -11,8 -20,22 -20,32 0,26 51,24 70,-2 z m 650,-310 c 0,-5 7,-10 16,-10 20,0 44,-24 44,-44 0,-9 8,-16 18,-16 9,0 43,-27 75,-60 31,-33 62,-60 68,-60 16,0 79,-66 79,-82 0,-7 9,-20 20,-28 21,-15 28,-70 10,-70 -5,0 -10,5 -10,10 0,6 -9,10 -20,10 -13,0 -20,7 -20,20 0,11 -7,20 -15,20 -8,0 -76,61 -150,135 -102,101 -135,141 -135,160 0,14 5,25 10,25 6,0 10,-4 10,-10 z"
      />
    </g>
  </g>
</svg>
