<svg xmlns="http://www.w3.org/2000/svg" id="Layer_1" data-name="Layer 1" version="1.1" viewBox="0 0 200 200"><defs><style>.cls-1{fill:none;stroke:#000;stroke-linecap:round;stroke-linejoin:round;stroke-width:12.5px}</style></defs><path d="M100.4,193.8h-47.6c-10.4,0-18.8-8.4-18.8-18.8V25c0-10.4,8.4-18.8,18.8-18.8h62.5c10.4,0,18.8,8.4,18.8,18.8v12.1" class="cls-1"/><path d="M52.8,6.2h9.4c1.7,0,3.1,1.4,3.1,3.1h0c0,3.5,2.8,6.2,6.2,6.2h25c3.5,0,6.2-2.8,6.2-6.2h0c0-1.7,1.4-3.1,3.1-3.1h9.4" class="cls-1"/><g id="TopPhone"><path d="M134,54.8h16.1c8.2,0,14.9,6.2,14.9,13.9v111.2c0,7.7-6.7,13.9-14.9,13.9h-49.7c-8.2,0-14.9-6.2-14.9-13.9v-111.2c0-7.7,6.7-13.9,14.9-13.9h33.6" class="cls-1"/><path d="M100.4,54.8h7.4c1.4,0,2.5,1,2.5,2.3h0c0,2.6,2.2,4.6,5,4.6h19.9c2.7,0,5-2.1,5-4.6h0c0-1.3,1.1-2.3,2.5-2.3h7.4" class="cls-1"/></g></svg>